<?xml version="1.0" encoding="UTF-8"?>
<svg width="157px" height="40px" viewBox="0 0 157 40" version="1.1" xmlns="http://www.w3.org/2000/svg" xmlns:xlink="http://www.w3.org/1999/xlink">
    <title>appstore-mac-black</title>
    <g id="appstore-mac-black" stroke="none" stroke-width="1" fill="none" fill-rule="evenodd">
        <g id="Group" transform="translate(0.000000, 0.000000)" fill="#000000" fill-rule="nonzero">
            <path d="M146.57123,1.02869102e-15 L9.53468,1.02869102e-15 C9.16798,1.02869102e-15 8.80568,1.02869102e-15 8.43995,0.00213 C8.1338,0.00413 7.83009,0.00994 7.521,0.01483 C6.84951368,0.0227318036 6.17960647,0.0818062599 5.5171,0.19154 C4.85552408,0.303662628 4.21467252,0.51504574 3.61622,0.81854 C3.0184995,1.12460185 2.47234513,1.52229766 1.99757,1.9972 C1.5203025,2.47076699 1.12246318,3.01814638 0.81935,3.61829 C0.515400242,4.21723912 0.304640498,4.8590683 0.19435,5.52161 C0.0830109412,6.18331491 0.0230983806,6.85265054 0.01515,7.52361 C0.00587,7.83021 0.00489,8.13783 0,8.44447 L0,31.55873 C0.00489,31.86923 0.00587,32.17003 0.01514,32.48063 C0.023090818,33.1515562 0.0830033796,33.8208584 0.19434,34.48253 C0.304325953,35.145459 0.515098158,35.7876566 0.81934,36.38683 C1.12231859,36.9850336 1.52021726,37.530197 1.99757,38.00113 C2.47054494,38.4781439 3.01705233,38.8761103 3.61622,39.17983 C4.21466797,39.4841365 4.85545044,39.6967778 5.5171,39.81063 C6.1797191,39.9194847 6.84955741,39.9785832 7.521,39.98743 C7.83009,39.99423 8.1338,39.99813 8.43995,39.99813 C8.80567,40.00013 9.168,40.00013 9.53468,40.00013 L146.57123,40.00013 C146.93063,40.00013 147.29583,40.00013 147.65523,39.99813 C147.95993,39.99813 148.27243,39.99423 148.57713,39.98743 C149.247303,39.9790537 149.91588,39.9199515 150.57713,39.81063 C151.240914,39.6959764 151.883994,39.4833914 152.48533,39.17983 C153.083957,38.8759346 153.62996,38.4779791 154.10253,38.00113 C154.578648,37.5283518 154.977392,36.9835873 155.28413,36.38683 C155.586089,35.7872208 155.794855,35.1450745 155.90323,34.48253 C156.014745,33.8207676 156.076783,33.1516143 156.08883,32.48063 C156.09273,32.17003 156.09273,31.86923 156.09273,31.55873 C156.10053,31.19543 156.10053,30.83413 156.10053,30.46493 L156.10053,9.53626 C156.10053,9.17005 156.10053,8.80677 156.09273,8.44447 C156.09273,8.13783 156.09273,7.83021 156.08883,7.52357 C156.076786,6.85255244 156.014747,6.18336567 155.90323,5.52157 C155.794553,4.8594116 155.585799,4.21763328 155.28413,3.61825 C154.666854,2.41532608 153.688033,1.4361554 152.48533,0.81845 C151.883992,0.51569738 151.240843,0.30437041 150.57713,0.19145 C149.915995,0.0812327831 149.247348,0.0221377649 148.57713,0.01469 C148.27243,0.00981 147.95993,0.00395 147.65523,0.002 C147.29583,1.02869102e-15 146.93063,1.02869102e-15 146.57123,1.02869102e-15 L146.57123,1.02869102e-15 Z" id="Path"></path>
        </g>
        <g id="Group" transform="translate(35.348160, 17.871170)" fill="#FFFFFF" fill-rule="nonzero">
            <polygon id="Path" points="10.80079 12.62505 10.80079 3.48541 10.74024 3.48541 6.99708 12.53033 5.56836 12.53033 1.81543 3.48541 1.75584 3.48541 1.75584 12.62506 7.10542736e-15 12.62506 7.10542736e-15 0.20706 2.22949 0.20706 6.24804 10.00882 6.3164 10.00882 10.32714 0.20706 12.56444 0.20706 12.56444 12.62506"></polygon>
            <path d="M14.04784,10.05181 C14.04784,8.46881 15.26073,7.51275 17.41307,7.38381 L19.89159,7.24611 L19.89159,6.55763 C19.89159,5.55079 19.2285,4.98243 18.10059,4.98243 C17.2362268,4.86747488 16.4213708,5.4136393 16.19922,6.25684 L14.46094,6.25684 C14.5127,4.6211 16.03614,3.45997 18.15235,3.45997 C20.31251,3.45997 21.74122,4.63868 21.74122,6.41997 L21.74122,12.62505 L19.95997,12.62505 L19.95997,11.1358 L19.91697,11.1358 C19.335943,12.1643186 18.240752,12.7946335 17.05955,12.78033 C16.2893641,12.8556846 15.5231584,12.602378 14.9496558,12.0828017 C14.3761533,11.5632254 14.0486599,10.825673 14.04784,10.05181 Z M19.89161,9.23443 L19.89161,8.53716 L17.6621,8.67486 C16.55175,8.7442 15.92382,9.22564 15.92382,10.00006 C15.92382,10.79206 16.57812,11.30865 17.57616,11.30865 C18.160122,11.3482668 18.7353321,11.1503552 19.1712909,10.7598158 C19.6072497,10.3692764 19.8669994,9.81921663 19.89161,9.23443 L19.89161,9.23443 Z" id="Shape"></path>
            <path d="M29.54493,6.68658 C29.3764601,5.65968872 28.4483756,4.93378474 27.41114,5.01763 C25.98243,5.01763 25.03614,6.21392 25.03614,8.09868 C25.03614,10.02641 25.99122,11.18755 27.42774,11.18755 C28.4522546,11.29015 29.3797297,10.57785 29.54493,9.56155 L31.33493,9.56155 C31.1033585,11.5083474 29.3634529,12.9165801 27.41114,12.73736 C24.82914,12.73736 23.14259,10.97271 23.14259,8.09869 C23.14259,5.28424 24.82911,3.46002 27.39359,3.46002 C29.3603727,3.2932369 31.101587,4.7246811 31.31839,6.68658 L29.54493,6.68658 Z" id="Path"></path>
            <path d="M43.41114,9.26861 L38.67774,9.26861 L37.54102,12.62506 L35.53614,12.62506 L40.01954,0.20706 L42.10254,0.20706 L46.58594,12.62506 L44.54684,12.62506 L43.41114,9.26861 Z M39.16798,7.71978 L42.91998,7.71978 L41.07037,2.27251 L41.01861,2.27251 L39.16798,7.71978 Z" id="Shape"></path>
            <path d="M56.26856,8.09869 C56.26856,10.91217 54.7627,12.71978 52.49024,12.71978 C51.3156253,12.7812246 50.2092024,12.1659907 49.64161,11.13578 L49.59861,11.13578 L49.59861,15.62016 L47.74024,15.62016 L47.74024,3.57134 L49.53907,3.57134 L49.53907,5.0772 L49.57325,5.0772 C50.1660567,4.05344629 51.2736737,3.43847661 52.45606,3.47661 C54.75391,3.47662 56.26856,5.29302 56.26856,8.09869 Z M54.3584,8.09869 C54.3584,6.26569 53.41113,5.0606 51.96582,5.0606 C50.5459,5.0606 49.59082,6.29107 49.59082,8.09869 C49.59082,9.92291 50.5459,11.14459 51.96582,11.14459 C53.41114,11.14459 54.3584,9.9483 54.3584,8.09869 Z" id="Shape"></path>
            <path d="M66.2334,8.09869 C66.2334,10.91217 64.72754,12.71978 62.45508,12.71978 C61.2804653,12.7812246 60.1740424,12.1659907 59.60645,11.13578 L59.56345,11.13578 L59.56345,15.62016 L57.70505,15.62016 L57.70505,3.57134 L59.50388,3.57134 L59.50388,5.0772 L59.53806,5.0772 C60.1308683,4.05344792 61.2384843,3.43847884 62.42087,3.47661 C64.71875,3.47662 66.2334,5.29302 66.2334,8.09869 Z M64.32325,8.09869 C64.32325,6.26569 63.37597,5.0606 61.93066,5.0606 C60.51074,5.0606 59.55566,6.29107 59.55566,8.09869 C59.55566,9.92291 60.51074,11.14459 61.93066,11.14459 C63.37598,11.14459 64.32325,9.9483 64.32325,8.09869 L64.32325,8.09869 Z" id="Shape"></path>
            <path d="M72.81934,9.16509 C72.95704,10.39654 74.15334,11.20509 75.78809,11.20509 C77.3545,11.20509 78.48145,10.3965 78.48145,9.28614 C78.48145,8.32227 77.80176,7.74514 76.19239,7.34962 L74.58302,6.96192 C72.30275,6.41114 71.24415,5.34473 71.24415,3.61426 C71.24415,1.47168 73.11134,0 75.7627,0 C78.3867,0 80.18555,1.47168 80.2461,3.61426 L78.3701,3.61426 C78.2578,2.375 77.23338,1.62696 75.73631,1.62696 C74.23924,1.62696 73.21482,2.3838 73.21482,3.48536 C73.21482,4.36329 73.86913,4.87989 75.46971,5.27536 L76.83787,5.6113 C79.38572,6.21384 80.44432,7.2373 80.44432,9.05368 C80.44432,11.37692 78.59373,12.832 75.65037,12.832 C72.89646,12.832 71.03709,11.4111 70.91697,9.165 L72.81934,9.16509 Z" id="Path"></path>
            <path d="M84.45508,1.42876 L84.45508,3.57134 L86.17676,3.57134 L86.17676,5.04302 L84.45508,5.04302 L84.45508,10.03423 C84.45508,10.80962 84.79981,11.17095 85.55664,11.17095 C85.7610314,11.1673859 85.9650921,11.1530326 86.16797,11.12795 L86.16797,12.59084 C85.8276983,12.6544196 85.4818408,12.6832145 85.13574,12.67678 C83.30274,12.67678 82.58789,11.9883 82.58789,10.23244 L82.58789,5.04302 L81.27148,5.04302 L81.27148,3.57134 L82.58789,3.57134 L82.58789,1.42876 L84.45508,1.42876 Z" id="Path"></path>
            <path d="M87.17284,8.09869 C87.17284,5.25006 88.85057,3.46002 91.46679,3.46002 C94.09179,3.46002 95.76171,5.25002 95.76171,8.09869 C95.76171,10.95514 94.10058,12.73736 91.46679,12.73736 C88.83399,12.73736 87.17284,10.95513 87.17284,8.09869 Z M93.86817,8.09869 C93.86817,6.14459 92.97264,4.99127 91.46678,4.99127 C89.96092,4.99127 89.06541,6.15338 89.06541,8.09869 C89.06541,10.0606 89.96092,11.20514 91.46678,11.20514 C92.97264,11.20514 93.86817,10.0606 93.86817,8.09869 L93.86817,8.09869 Z" id="Shape"></path>
            <path d="M97.29493,3.57134 L99.06739,3.57134 L99.06739,5.11234 L99.11039,5.11234 C99.357566,4.12032841 100.266523,3.43759156 101.28812,3.4766 C101.502284,3.47585223 101.715857,3.49911075 101.92484,3.54594 L101.92484,5.28422 C101.654471,5.20160437 101.37243,5.16367237 101.08984,5.17192 C100.54349,5.14975845 100.014745,5.36749905 99.6424382,5.76796991 C99.2701311,6.16844078 99.0914569,6.71163254 99.15333,7.25492 L99.15333,12.62504 L97.29493,12.62504 L97.29493,3.57134 Z" id="Path"></path>
            <path d="M110.49219,9.96587 C110.24219,11.60942 108.6416,12.73735 106.59375,12.73735 C103.95996,12.73735 102.3252,10.9727 102.3252,8.14165 C102.3252,5.30181 103.96875,3.46001 106.51563,3.46001 C109.02051,3.46001 110.59571,5.18071 110.59571,7.92583 L110.59571,8.56255 L104.20118,8.56255 L104.20118,8.67485 C104.141477,9.34888162 104.374222,10.0160794 104.84021,10.5067299 C105.306198,10.9973804 105.960517,11.2641933 106.63673,11.2393 C107.538572,11.3237996 108.388833,10.8059377 108.72755,9.96586 L110.49219,9.96587 Z M104.20996,7.26373 L108.73633,7.26373 C108.770055,6.65805749 108.549587,6.06578308 108.12804,5.62959155 C107.706494,5.19340001 107.122091,4.95284041 106.51563,4.96587 C105.904374,4.96222491 105.316985,5.20289849 104.884022,5.63439681 C104.451059,6.06589514 104.208396,6.65246466 104.20996,7.26373 L104.20996,7.26373 Z" id="Shape"></path>
        </g>
        <g id="Group" transform="translate(35.670920, 9.437000)" fill="#FFFFFF" fill-rule="nonzero">
            <path d="M2.15527,0.294 C2.94421656,0.237384181 3.71697226,0.537547428 4.26084129,1.11187182 C4.80471032,1.68619621 5.06236587,2.47414479 4.96289,3.25884 C4.96289,5.16509 3.93262,6.26084 2.15527,6.26084 L0,6.26084 L0,0.294 L2.15527,0.294 Z M0.92675,5.417 L2.05175,5.417 C2.61557194,5.45070201 3.16456652,5.22855901 3.54629851,4.81225179 C3.9280305,4.39594457 4.10185961,3.82979442 4.01952,3.271 C4.09586901,2.71452453 3.91953658,2.15304622 3.53875108,1.74013398 C3.15796557,1.32722175 2.61257567,1.1060863 2.05175,1.13721 L0.92675,1.13721 L0.92675,5.417 Z" id="Shape"></path>
            <path d="M6.00976,4.00734 C5.93254713,3.20022505 6.31956366,2.41911193 7.00849593,1.99159737 C7.69742819,1.5640828 8.56916181,1.5640828 9.25809407,1.99159737 C9.94702634,2.41911193 10.3340429,3.20022505 10.25683,4.00734 C10.3355119,4.81532226 9.94884866,5.59795038 9.25930554,6.0263853 C8.56976243,6.45482022 7.69682757,6.45482022 7.00728446,6.0263853 C6.31774134,5.59795038 5.93107806,4.81532226 6.00976,4.00734 Z M9.34277,4.00734 C9.34277,3.03127 8.90428,2.46047 8.13476,2.46047 C7.3623,2.46047 6.92776,3.03127 6.92776,4.00735 C6.92776,4.99124 7.36233,5.55764 8.13476,5.55764 C8.90429,5.55764 9.34277,4.98732 9.34277,4.00734 L9.34277,4.00734 Z" id="Shape"></path>
            <polygon id="Path" points="15.90234 6.26075 14.98047 6.26075 14.04981 2.94434 13.9795 2.94434 13.05274 6.26075 12.13965 6.26075 10.89844 1.75782 11.79981 1.75782 12.60645 5.19382 12.67286 5.19382 13.59864 1.75782 14.45118 1.75782 15.37696 5.19382 15.44727 5.19382 16.25 1.75782 17.13867 1.75782"></polygon>
            <path d="M18.18261,1.75782 L19.03808,1.75782 L19.03808,2.47315 L19.10449,2.47315 C19.3354249,1.94647794 19.8750529,1.62430747 20.44824,1.6709 C20.8920568,1.63753177 21.3269659,1.8077899 21.6301708,2.13360207 C21.9333757,2.45941424 22.0719731,2.90542376 22.00683,3.3457 L22.00683,6.2607 L21.11816,6.2607 L21.11816,3.56886 C21.11816,2.84523 20.80371,2.48536 20.14648,2.48536 C19.8454458,2.47133912 19.5533002,2.58948257 19.3466346,2.80881678 C19.139969,3.028151 19.039395,3.32680101 19.07128,3.62647 L19.07128,6.26075 L18.18261,6.26075 L18.18261,1.75782 Z" id="Path"></path>
            <polygon id="Path" points="23.42285 0 24.31152 0 24.31152 6.26074 23.42285 6.26074"></polygon>
            <path d="M25.54687,4.00734 C25.4696571,3.20022505 25.8566737,2.41911193 26.5456059,1.99159737 C27.2345382,1.5640828 28.1062718,1.5640828 28.7952041,1.99159737 C29.4841363,2.41911193 29.8711529,3.20022505 29.79394,4.00734 C29.8726219,4.81532226 29.4859587,5.59795038 28.7964155,6.0263853 C28.1068724,6.45482022 27.2339376,6.45482022 26.5443945,6.0263853 C25.8548513,5.59795038 25.4681881,4.81532226 25.54687,4.00734 Z M28.87988,4.00734 C28.87988,3.03127 28.44139,2.46047 27.67187,2.46047 C26.89941,2.46047 26.46487,3.03127 26.46487,4.00735 C26.46487,4.99124 26.89944,5.55764 27.67187,5.55764 C28.4414,5.55764 28.87988,4.98732 28.87988,4.00734 L28.87988,4.00734 Z" id="Shape"></path>
            <path d="M30.72949,4.98732 C30.72949,4.17677 31.33301,3.70949 32.40429,3.64308 L33.62402,3.57277 L33.62402,3.1841 C33.62402,2.70851 33.30957,2.43996 32.70215,2.43996 C32.20606,2.43996 31.86231,2.62209 31.76367,2.94045 L30.90332,2.94045 C30.99414,2.16701 31.72168,1.67092 32.74316,1.67092 C33.87207,1.67092 34.50879,2.23292 34.50879,3.1841 L34.50879,6.26076 L33.65332,6.26076 L33.65332,5.62795 L33.58301,5.62795 C33.2924586,6.09007633 32.7757636,6.36016323 32.23047,6.33495 C31.8482061,6.37471181 31.4669611,6.25091066 31.1809858,5.99415244 C30.8950105,5.73739423 30.7309961,5.37164331 30.72949,4.98732 L30.72949,4.98732 Z M33.62402,4.60255 L33.62402,4.22609 L32.52441,4.2964 C31.90429,4.3379 31.62304,4.54884 31.62304,4.94581 C31.62304,5.35108 31.9746,5.58692 32.45804,5.58692 C32.7442261,5.61588986 33.0299164,5.52747505 33.2497104,5.34191559 C33.4695044,5.15635613 33.6045816,4.88954106 33.62402,4.60255 L33.62402,4.60255 Z" id="Shape"></path>
            <path d="M35.67676,4.00734 C35.67676,2.58449 36.40821,1.68312 37.5459,1.68312 C38.1203768,1.65665013 38.6584275,1.96447287 38.92676,2.47312 L38.99317,2.47312 L38.99317,0 L39.88184,0 L39.88184,6.26074 L39.03028,6.26074 L39.03028,5.54931 L38.95997,5.54931 C38.6713542,6.05373698 38.1266745,6.35635648 37.54591,6.33495 C36.40039,6.335 35.67676,5.43361 35.67676,4.00734 Z M36.59476,4.00734 C36.59476,4.96242 37.04496,5.53713 37.79789,5.53713 C38.54689,5.53713 39.0098,4.95413 39.0098,4.01125 C39.0098,3.07277 38.54203,2.48146 37.79789,2.48146 C37.0498,2.48146 36.59472,3.06007 36.59472,4.00734 L36.59476,4.00734 Z" id="Shape"></path>
            <path d="M43.55859,4.00734 C43.4814364,3.20017225 43.868514,2.41903936 44.5574974,1.9915182 C45.2464808,1.56399704 46.1182592,1.56399704 46.8072426,1.9915182 C47.496226,2.41903936 47.8833036,3.20017225 47.80615,4.00734 C47.884732,4.81535119 47.4979979,5.59795719 46.8084205,6.02637324 C46.1188432,6.45478929 45.2458968,6.45478929 44.5563195,6.02637324 C43.8667421,5.59795719 43.480008,4.81535119 43.55859,4.00734 L43.55859,4.00734 Z M46.8916,4.00734 C46.8916,3.03127 46.45311,2.46047 45.68359,2.46047 C44.91113,2.46047 44.47659,3.03127 44.47659,4.00735 C44.47659,4.99124 44.91116,5.55764 45.68359,5.55764 C46.45308,5.55764 46.8916,4.98732 46.8916,4.00734 L46.8916,4.00734 Z" id="Shape"></path>
            <path d="M48.99853,1.75782 L49.854,1.75782 L49.854,2.47315 L49.92041,2.47315 C50.1513449,1.94647794 50.6909729,1.62430747 51.26416,1.6709 C51.7079768,1.63753177 52.1428859,1.8077899 52.4460908,2.13360207 C52.7492957,2.45941424 52.8878931,2.90542376 52.82275,3.3457 L52.82275,6.2607 L51.93408,6.2607 L51.93408,3.56886 C51.93408,2.84523 51.61963,2.48536 50.9624,2.48536 C50.6613658,2.47133912 50.3692202,2.58948257 50.1625546,2.80881678 C49.955889,3.028151 49.855315,3.32680101 49.8872,3.62647 L49.8872,6.26075 L48.99853,6.26075 L48.99853,1.75782 Z" id="Path"></path>
            <path d="M57.84424,0.63673 L57.84424,1.77833 L58.81983,1.77833 L58.81983,2.52687 L57.84424,2.52687 L57.84424,4.8423 C57.84424,5.31398 58.03858,5.52052 58.48096,5.52052 C58.5942156,5.52015754 58.7073575,5.51330966 58.81983,5.50001 L58.81983,6.24024 C58.6602395,6.26879072 58.4985456,6.28398004 58.33643,6.28565 C57.34815,6.28565 56.95459,5.93799 56.95459,5.06983 L56.95459,2.52683 L56.23975,2.52683 L56.23975,1.77829 L56.95459,1.77829 L56.95459,0.63673 L57.84424,0.63673 Z" id="Path"></path>
            <path d="M60.03369,0 L60.91455,0 L60.91455,2.48145 L60.98486,2.48145 C61.2268878,1.95016856 61.7759601,1.62758754 62.35786,1.67481 C62.7991566,1.65079728 63.2281783,1.82480371 63.5280693,2.14943385 C63.8279602,2.47406399 63.9674849,2.91550564 63.90864,3.35352 L63.90864,6.26075 L63.01908,6.26075 L63.01908,3.57275 C63.01908,2.85351 62.68408,2.48925 62.05619,2.48925 C61.747019,2.46389367 61.4424191,2.57629096 61.2238223,2.7963935 C61.0052256,3.01649605 60.8949219,3.32186031 60.9224,3.63085 L60.9224,6.26075 L60.03373,6.26075 L60.03369,0 Z" id="Path"></path>
            <path d="M69.09033,5.04493 C68.841137,5.89430948 68.0191789,6.44310304 67.13916,6.34766 C66.5387239,6.3635102 65.9616714,6.1146307 65.5611082,5.66705516 C65.1605451,5.21947963 64.9769664,4.61845594 65.05908,4.02345 C64.9791474,3.42679048 65.1620382,2.82480373 65.5603708,2.37344696 C65.9587034,1.92209018 66.533282,1.66577675 67.13525,1.67091 C68.38818,1.67091 69.14404,2.52691 69.14404,3.94091 L69.14404,4.251 L65.96435,4.251 L65.96435,4.3008 C65.936212,4.63494014 66.0503307,4.96544775 66.2786408,5.2110407 C66.5069509,5.45663365 66.8282679,5.59452392 67.16357,5.5908 C67.5983419,5.64299468 68.0215625,5.42733304 68.23486,5.0449 L69.09033,5.04493 Z M65.96433,3.59376 L68.23874,3.59376 C68.2613929,3.28816044 68.1539385,2.98720507 67.9428569,2.76505909 C67.7317754,2.54291311 67.4366975,2.42023623 67.13034,2.42726 C66.819832,2.42335891 66.520908,2.54502124 66.3013763,2.76464888 C66.0818447,2.98427653 65.9603131,3.28325374 65.96435,3.59376 L65.96433,3.59376 Z" id="Shape"></path>
        </g>
        <g id="Group" transform="translate(9.971567, 8.720400)" fill="#FFFFFF" fill-rule="nonzero">
            <path d="M14.7973126,11.58041 C14.8191696,9.88393912 15.7085555,8.31691611 17.1538726,7.42835 C16.2379452,6.12024277 14.7588246,5.32060835 13.1627126,5.27067 C11.4834726,5.09441 9.85552256,6.2755 8.99981256,6.2755 C8.12754256,6.2755 6.81004256,5.28817 5.39131256,5.31736 C3.52463382,5.37766842 1.82656973,6.41325548 0.91839256,8.04523 C-1.01560744,11.39365 0.42698256,16.3147 2.27959256,19.02131 C3.20649256,20.34666 4.28977256,21.82711 5.70722256,21.77461 C7.09428256,21.71708 7.61232256,20.89013 9.28662256,20.89013 C10.9453826,20.89013 11.4314126,21.77461 12.8776226,21.74123 C14.3660026,21.71707 15.3037526,20.40999 16.1981326,19.07209 C16.8641087,18.1277297 17.3765762,17.0840059 17.7165526,15.97958 C15.9488091,15.2319113 14.7993758,13.4997643 14.7973126,11.58041 L14.7973126,11.58041 Z" id="Path"></path>
            <path d="M12.0656826,3.49062 C12.8772092,2.51641191 13.2770175,1.26423245 13.1802026,-1.77635684e-15 C11.9403704,0.130220487 10.7951128,0.722779675 9.97262256,1.65961 C9.16045128,2.58391903 8.74900719,3.79316268 8.82891256,5.021 C10.0853694,5.03393677 11.2783487,4.46988322 12.0656826,3.49062 L12.0656826,3.49062 Z" id="Path"></path>
        </g>
    </g>
</svg>