<svg height="40" viewBox="0 0 150 40" width="150" xmlns="http://www.w3.org/2000/svg"><g fill="#55606e" fill-rule="nonzero"><path d="m7.699125 2.36629117c0-1.0832475-1.0236-1.40075325-1.8781725-1.3633995v.177432c.5164875 0 .9390975.1774275.9390975.5136075s-.1784475.5416275-.6855525.5416275c-.6332775-.070785-1.25493-.2214075-1.8499725-.448245-.59994-.2437575-1.232835-.3979575-1.8781425-.4575825-.24081-.007455-.48072.0326625-.70584.1180275-.2251125.085365-.430965.2142825-.60564.3792975s-.3147.3628425-.4119675.5820375-.14985.4553925-.1547025.6949275c-.002145.2633175.0792975.52059.2327325.7352025.1534275.2146125.3710325.3756225.621825.46011l.0751275-.13074c-.1107825-.047445-.2043375-.12744-.2681175-.2292525s-.09474-.2205825-.0887325-.3403875c.009285-.090615.0367275-.17847.0807225-.25836.0440025-.0798975.10365-.15021.1754325-.2067975.0717825-.05658.154245-.0982875.242505-.1226475s.18054-.030885.27138-.019185c.68952.0738675 1.367475.2306475 2.0190075.46692.6634425.191595 1.3376025.344385 2.0190075.457575v1.718265l-.8357775.7003725v.06537l.8357775.7283925v2.33457c-.41772.223575-.887535.33315-1.361655.31755-.404175.0207-.8079975-.047175-1.18287-.1989-.374865-.15165-.7116075-.383475-.9863925-.6789l2.25378-1.0832775v-3.7353525l-2.7608775 1.2139875c.293715-.6710025.80658-1.22379 1.4555625-1.5688425v-.13074c-.8701275.21069-1.649175.6937725-2.222325 1.37805-.57315.684285-.91008 1.5335625-.96114378 2.422665-.00121872.507285.09818628 1.009785.29253378 1.47876.194355.46905.4798425.895275.840105 1.25437503.3602625.359175.7882275.6441 1.259385.8385s.9762525.29445 1.486365.29445c.4763325.0114.9500625-.073125 1.39266-.248625.442605-.175425.8449125-.43815 1.182705-.772275.33777-.33420003.604095-.73290003.78282-1.17210003s.26625-.9099.25725-1.3835925h-.1221c-.292875.6986925-.7859925 1.2962925-1.4179875 1.7182425v-2.278545l.8920875-.7283925v-.0747075l-.8733075-.7097175v-1.6715625c.212775.006225.4246575-.029925.6231825-.1063275.198525-.076395.37965-.191505.5328-.3385575.153075-.147045.2751-.3230625.3588-.5176875s.127425-.403935.128625-.615615zm-4.7892975 6.0699375-.6667425.317475c-.4419-.6027-.6638475-1.3373025-.6291825-2.0824275-.01203-.4068225.03864-.813075.150255-1.20465l1.15506-.50427v3.4738725zm5.8410225 1.21395-.73245.54165003.084525.10275.35685-.242775 1.239525 1.120575 1.652775-1.0926-.084525-.12142503-.431925.27082503-.535275-.53227503v-3.7353375l.441375-.3268425.939075.756405v3.32445c0 2.07315003-.4602 2.41867503-1.40865 2.80155003v.140025c1.56825.0654 2.96745-.457575 2.96745-3.11902503v-3.6419325l.469575-.382875v-.121395l-.441375.33618-1.436775-1.1953125-1.530675 1.2139875v-4.51977h-.1221l-1.9533 1.30737v.13074c.17325.0589575.3204.1759875.416325.3310275.096.15504.1347.3384375.109575.51876v6.15402zm10.07625-.5883-1.361625 1.07392503-1.389825-1.12995003v-.6537l2.6106-1.7369025v-.0747075l-1.3053-2.00775-2.817225 1.522155v3.61398l-.563475.43890003.0939.11205.50715-.40155003 1.87815 1.34467503 2.450925-1.96102503zm-2.75145-.933825v-2.6614275l.084525-.0653625 1.2114 1.9330425-1.295925.8591475zm13.30665-6.256695c-.00435-.1758525-.0393-.3496275-.103275-.5136075h-.131475c-.178425.457575-.38505.70971-.939075.70971-.1992-.008565-.394575-.05775-.5739-.144495-.17925-.086745-.338775-.2091975-.468525-.359775l-1.56825 1.8676725.131475.112065.441375-.50427c.17925.1719825.391125.3067875.623325.39657.232125.089775.479925.132735.728925.126375v4.5198l-3.2304-5.6030475c-.1245-.2846925-.3234-.5310075-.576075-.71331s-.5499-.293925-.8607-.32325c-.242325.0098775-.479625.072075-.695325.1822875-.2157.110205-.404775.2657775-.55395.4559175-.14925.19014-.255075.4102875-.310125.6451725s-.058125.478875-.00885.7150275h.159675c0-.3455175.20655-.70971.5916-.70971.15765.0232725.30675.0860625.4332.1824525.126525.09639.226275.2232075.289875.368505v1.820985c-.97665 0-1.63395.4575825-1.63395 1.2980325-.014625.2847075.071175.5655525.242625.794025s.417825.390225.69645.4573125v-.121395c-.0573-.044445-.103875-.1010475-.13635-.1656675-.03255-.06462-.0501-.13563-.051525-.20787 0-.2988225.225375-.4949325.629175-.4949325h.29115v2.31594c-1.173825 0-2.075325.653625-2.075325 1.75560003.00795.22665.065325.448875.168.651375.10275.202425.248325.3804.426825.52155.178575.141075.385725.2421.607275.29595.22155.053775.452175.05925.675975.0159v-.130725c-.582225-.0654-.939-.33615-.939-.719025-.00315-.0993.015-.19815.05325-.28995.03825-.091725.0957-.174375.168525-.2424.0729-.068025.159375-.11985.25395-.152025.0945-.032175.19485-.044025.2943-.034725.217275.015.428925.07515.621375.176475.192525.101325.3615.241575.496125.411825l1.587-1.76490003-.1596-.11205-.4038.457575c-.430575-.464625-1.012875-.76245-1.6434-.84045v-5.4909825l4.451175 7.71345753h.319275v-7.68544503c.433875-.0140025.84615-.191655 1.153125-.4968975s.485625-.7152.49965-1.1466525zm3.9723 7.19052-1.352325 1.07392503-1.389825-1.12995003v-.6537l2.610675-1.7369025v-.0747075l-1.31475-2.00775-2.817225 1.522155v3.61398l-.5634.43890003.0939.11205.507075-.40155003 1.87815 1.34467503 2.4228-1.96102503-.103275-.1401zm-2.74215-.905775v-2.6894775l.093975-.0653625 1.20195 1.8676725zm11.775975-2.9976375-.413175.30816-1.032975-.9338325-1.220775 1.092585.4977.4762575v4.13691753l-1.342875-.84982503v-3.33378l.432-.29883-1.295925-1.223325-1.19265 1.1299425.4977.4762575v3.92211003l-.131475.0747-1.16445-.82177503v-3.2684175c0-.7564125-.366225-.93384-.85455-1.2793575s-.5916-.4575825-.5916-.8404575c0-.3828675.3099-.4949325.4695-.5789775-.003975-.043485-.003975-.0872475 0-.1307325-.403875.0173175-.7884.177255-1.084425.451095-.296025.2738475-.4842.6436575-.530775 1.04304-.00375.20361.042075.405105.13365.58725s.2262.33951.39225.4586475c.1503.10866.2751.2484.36585.409605.090825.161205.145425.34005.16005.524235v3.17502l-.5916.45757503.0939.121425.535275-.420225 1.455525 1.12995 1.38045-.933825 1.5213.933825 2.929875-1.69027503v-3.6512775l.7137-.5229525-.084525-.1307325zm10.217175-3.0162975-.544725.5229525-1.239525-1.10193-1.793625 1.33539v-1.251345h-.1878v8.89011753c-.178425 0-.638625-.130725-1.061175-.196125v-7.47066753c.0003-.1769325-.035775-.3520575-.10605-.5146125-.070275-.1625625-.173175-.3091275-.302475-.4306875-.129225-.1215675-.28215-.215565-.449325-.2762175-.1671-.06066-.345-.0866925-.5226-.076515-.21705-.0126525-.434475.01866-.639.092055-.204525.0733875-.39195.18732-.550875.33489s-.286125.3257025-.373725.5235975c-.087675.197895-.13395.41142-.136125.627645h.159675c0-.3268425.215925-.616335.54465-.616335.32865 0 .629175.2054475.629175.93384v2.14782c-1.00485 0-1.587075.59766-1.587075 1.288695-.015525.135465-.0033.2726625.036.4032975.0393.1306275.104775.251985.192525.35673.087825.1047375.19605.190665.31815.25269.1221.06195.2556.0987.3924.10785v-.130725c-.08175-.02265-.15375-.071535-.20475-.139095-.050925-.06756-.078-.14997-.07695-.2344125 0-.317505.300525-.448245.723075-.448245h.19725v3.39920253c-.334575.093-.62865.29385-.836025.57105-.2073.2772-.316275.615-.309675.960375.005475.226275.057675.449025.1533.65445.09555.205425.232575.3891.402525.5397.169875.1506.36915.264825.5853.3357.21615.07095.4446.0969.671325.07635.71325-.0138 1.42245-.110925 2.1129-.289425.5193-.118425 1.04655-.199575 1.577625-.24285.413175 0 .600975.196125.600975.494925.02025.129375-.009.2616-.08205.3705-.07305.108975-.1845.186675-.3123.217875v.130725c.386175-.026025.748125-.1965 1.01295-.47715.264825-.280725.41295-.650775.41445-1.035675 0-.84045-.798225-1.335375-1.69035-1.335375-.69015.03735-1.375425.137325-2.0472.2988-.558825.131325-1.1271.218775-1.699725.26145-.3756 0-.85455-.18675-.85455-.690975 0-.5043.38505-.821775 1.3335-.821775.578925.009675 1.15515.081675 1.718475.214725.6123.1764 1.242075.285975 1.87815.32685.8076 0 1.5213-.280125 1.5213-1.44742503v-6.779655l.647925-.5416275-.122025-.1214025zm-2.272575 3.38049c-.083475.09222-.18465.1669725-.297525.219885-.1128.052905-.2352.08292-.35985.0882825-.25365-.0143475-.49215-.1245975-.66675-.3081675v-2.4373125l.563475-.382875.76065.6910425zm0 1.6342125c-.1734-.1759425-.40965-.2766375-.657375-.2801475-.24915.0095175-.486225.1091325-.66675.2801475v-1.4381025c.18195.1702725.417525.27258.66675.289485.1233-.002955.244875-.0300375.357675-.07971s.21465-.1209525.2997-.209775zm0 2.5587075c.003975.11595-.0162.23145-.05925.33922503-.04305.107775-.108075.2055-.191025.2871-.082875.0816-.181875.1452-.290775.1869-.108825.041625-.22515.06045-.3417.055275-.147.008925-.294375.008925-.441375 0v-3.24977253c.175725-.18204.41355-.29199.66675-.3081675.250575.01575.4857.1259625.657375.3081675v2.3625975zm7.5126-3.89409-1.746675-1.288695-2.676375 1.5501675v3.5765925l-.554025.47625003.08445.11205.432-.35482503 1.765425 1.29802503 2.6952-1.69027503zm-2.92995 3.45519v-3.9127725l1.436775 1.03656v3.92208753l-1.3992-.99915003zm8.1981-4.575795h-.11265c-.128475.1279725-.2979.207255-.47895.2241225-.118275-.00543-.234225-.0347175-.340725-.086085-.106575-.051375-.201525-.1237575-.279075-.212745h-.103275l-.939075 1.0085475-.939075-1.0085475-1.605825 1.120605.084525.13074.432-.2894925.5634.5976525v3.4644975l-.73245.54165003.084525.10275.35685-.242775 1.32405 1.120575 1.71855-1.139325-.07515-.11205003-.488325.28950003-.63855-.57900003v-3.8473725c.111375.1506375.2517.277755.41295.3739425.161175.0961875.34005.15954.526125.18636.73245 0 1.13625-.8124375 1.220775-1.64355zm6.573525 5.25747-1.87815 1.22332503-2.451-3.84737253 1.803075-2.8015125h.075075c.251175.2504925.5844.4029375.939075.4295625.16035.00291.318675-.03504.46005-.110235s.261-.18513.34755-.3193275h.131475c.0294.41559-.0975.82722-.356025 1.1550525s-.6303.5485125-1.043175.6192375c-.42495-.0150825-.832125-.173115-1.155075-.448245l-.168975.252135 2.72325 4.02483003.5541-.33615003.075075.130725zm-6.057-.308175-.7419.54165003.0939.10275.35685-.242775 1.230225 1.120575 1.72785-1.0926-.08445-.12142503-.422625.27082503-.535275-.53227503v-8.4698925h-.1221l-1.981425 1.3167075v.1214025c.177675.049755.3318.1605975.435.312795s.148725.3358725.128475.5183175v6.153945zm15.2037-7.2838875c0-1.0832475-1.02375-1.40075325-1.878-1.3633995v.177432c.516 0 .939.1774275.939.5136075s-.1695.5416275-.6855.5416275c-.624-.0731025-1.236-.223695-1.82175-.448245-.6-.2437575-1.233075-.3979575-1.87845-.4575825-.24075-.007455-.480675.0326625-.705825.1180275-.225075.085365-.43095.2142825-.605625.3792975s-.3147.3628425-.411975.5820375-.14985.4553925-.15465.6949275c-.002175.2633175.079275.52059.232725.7352025.153375.2146125.371025.3756225.621825.46011l.075075-.13074c-.097725-.057825-.177-.1420425-.228525-.24288s-.0732-.2141475-.06255-.32676c.0081-.0902175.034425-.1778775.077475-.2577225.042975-.079845.101775-.150225.1728-.2069175.071025-.056685.15285-.09852.2406-.1229775.087675-.024465.1794-.0310575.269775-.0193725.689475.0738675 1.367325.2306475 2.019075.46692.66375.190605 1.338.34338 2.019.457575v1.718265l-.8355.7003725v.06537l.8355.7283925v2.33457c-.41775.223575-.88725.33315-1.362.31755-.4035.01695-.80625-.05265-1.1805-.20415-.37425-.151425-.711375-.381225-.9885-.67365l2.2635-1.0832775v-3.7353525l-2.817525 1.223325c.296775-.6690075.8088-1.2209025 1.455525-1.5688425v-.1307325c-.862125.217935-1.63155.7043475-2.19585 1.38816s-.893925 1.529175-.9406956 2.4125475c-.0024294.5067975.0958206 1.0091475.2891706 1.4780475.19335.468975.4779.89535.83745 1.25460003.359475.359175.786825.64425 1.25745.8388s.975225.294675 1.485225.294675c.477.012675.95175-.07095 1.395-.24585.444-.174825.8475-.4374 1.1865-.771675.33825-.33427503.606-.73342503.78525-1.17330003.17925-.4398.267-.91125.258-1.385805h-.132c-.2895.700455-.783 1.298805-1.4175 1.71828v-2.28792l.939-.7097175v-.0747075l-.87375-.70971v-1.690245c.2145.0087825.42825-.02547.62925-.100725.201-.0752475.384-.1899525.53925-.33726.15525-.1473.279-.3241875.36375-.5200875.08475-.1959075.129-.4068075.1305-.620115zm-4.789425 6.0699375-.666675.317475c-.39885-.618-.5775-1.35138-.50715-2.0824275-.025425-.40548.015825-.81237.1221-1.20465l1.155075-.50427v3.4458225zm6.686175-6.5368575h-.08475l-1.09875.93384v.0747075l.93975 1.0458975h.09375l1.09875-.93384v-.1120575l-.939-1.055235zm1.67175 8.10570753-.41325.270825-.5445-.53227503v-3.735375l.52575-.3922125-.1035-.1307325-.4035.30816-.87375-1.260675-1.57725 1.1299425.09375.149415.3945-.26148.48825.59766v3.5485725l-.714.53227503.075.11205.37575-.26145 1.20225 1.0926 1.653-1.0926-.09375-.12142503zm9.24975-.11205003-.3945.26145003-.5445-.53227503v-3.735345l.56325-.4108875-.09375-.1214025-.4695.3735375-1.296-1.1953125-1.6245 1.185975-1.24875-1.185975-1.59675 1.1299425-.98625-1.1299425-1.57725 1.1299425.084.149415.3945-.26148.5355.5883225v3.54861l-.432.42952503 1.2585 1.05525 1.221-1.0926-.498-.47625003v-3.7353525l.4695-.30816.85425.7844175v3.31512l-.42225.42960003 1.27725 1.055175 1.1925-1.092525-.498-.47632503v-3.735315l.423-.2801475.939.77508v3.2590575l-.366.382875 1.28625 1.15800003 1.6905-1.14862503zm4.7895-.83115-1.3245 1.07392503-1.4085-1.10190003v-.6537l2.6385-1.7649525v-.0747075l-1.32375-2.00775-2.817 1.522155v3.73533l1.878 1.37272503 2.4975-1.96102503-.10275-.1401zm-2.76075-.933825v-2.6614275l.09375-.0653625 1.21125 1.8676725zm7.794-.5042625-1.06125-.8031c.28725-.250425.519-.557325.68025-.9012975.162-.3439725.24975-.71754.25875-1.0971075.0075-.115065.0075-.23046 0-.345525h-.13125c-.0465.1584075-.144.29691-.279.39339-.13425.09648-.297.1453875-.46275.1389-.18525-.0163575-.3645-.0714075-.52575-.161535-.162-.0901275-.303-.2133-.41325-.3614175l-2.4795 1.3447275v2.0264025l.939.7191c-.939.821775-1.10775 1.3914-1.10775 1.81162503-.0195.239625.04125.478875.17175.68115.1305.20235.324.356625.55125.439425l.06525-.11205c-.07125-.044175-.12975-.106275-.16875-.180075-.03975-.0738-.05925-.1566-.05625-.24015 0-.18675.225-.4482.648-.4482.20325.010575.402.06645.5805.163425s.333.232575.45225.396825l2.38575-1.41937503v-2.017125zm-.582-1.6528875c-.46425.64917-1.0395 1.2118725-1.70025 1.662225l-.60075-.46692v-1.9236975c.13275.27165.3375.5021325.5925.6666675s.54975.2568975.8535.267165c.29925.009075.5955-.065325.855-.2147775zm-.939 4.36102503c-.138-.304575-.35925-.56475003-.63825-.75120003-.27825-.18645-.60375-.29175-.93975-.30405-.36225-.00975-.72.080775-1.03275.26145.50925-.7197 1.16925-1.32165 1.93425-1.7649225l.6765.5229225z"/><path d="m38.557725 33.8128537v-6.144675h-1.126875v-3.632625h7.5126v2.063775c1.2114-1.27935 2.554275-2.37195 4.4418-2.37195.25965-.0141.519825-.0141.7794 0v4.6692c-1.006725-.053775-2.0163.018375-3.005025.2148-.383775.078975-.747825.2337-1.0704.455025-.322575.2214-.5973.504825-.80775.8337-.321675.8157-.437775 1.6974-.338025 2.568v1.34475h1.511925v3.632625h-9.024525v-3.632625z"/><path d="m58.4982 37.7206537c-2.104275.114525-4.179075-.53235-5.841-1.820925-.746175-.649725-1.341075-1.4532-1.7433-2.354775-.40215-.9015-.602025-1.879275-.5856-2.865375 0-4.389075 3.5121-6.9291 7.7004-6.9291 4.554525 0 7.5126 3.184425 7.5126 7.04115 0 .4482 0 .868425-.0564 1.307325h-8.827275c.2442 1.56885 1.0518 2.315925 2.347725 2.315925.422175-.00255.836775-.1119 1.2048-.3177.36795-.205875.67725-.50145.898725-.8589h4.4136c-.929625 3.044325-3.765675 4.482375-7.024275 4.482375zm-1.87815-7.685475h3.324375v-.289425c0-1.148625-.281775-2.315925-1.662225-2.315925-.33525-.010275-.6648.08805-.93915.279975-.27435.192-.478575.46725-.58215.784575-.1248.5037-.1566 1.025775-.0939 1.5408z"/><path d="m72.55215 23.7515287c.602925-.05415 1.2105.020325 1.78185.2184.57225.198075 1.09425.515175 1.533.930225v-.8685h4.04775v5.22015h-4.04775c0-1.223325-.56325-1.86765-1.35225-1.86765-1.0047 0-1.6809 1.092525-1.6809 2.624025-.040875.50655.030525 1.0158.2091 1.4919.178575.476175.459975.9075.8244 1.263675.36465.356175.8034.628575 1.2849.79785s.99525.231375 1.50375.18195c1.10475-.012525 2.202-.182325 3.25875-.5043v3.4926c-1.662.6621-3.44175.979875-5.23125.933825-1.63395.087225-3.26025-.281475-4.695-1.064625-1.1022-.6501-2.0109-1.5798-2.63295-2.694-.62205-1.114125-.935175-2.372625-.90735-3.646725.037575-3.744675 2.59185-6.5088 6.10395-6.5088z"/><path d="m86.8845 37.7276287c-3.0045 0-4.8645-1.736925-4.8645-4.5291v-5.528325h-1.18275v-3.632625h7.51275v8.049675c0 1.111275.4785 1.727625 1.43625 1.727625s1.35225-.61635 1.35225-1.727625v-4.41705h-1.24875v-3.632625h7.61625v9.7773h1.1265v3.632625h-7.51275v-1.56885c-1.17675 1.050525-2.661 1.698525-4.23525 1.848975z"/><path d="m98.913 27.6693037v-3.632625h1.26825v-4.19295h6.348v4.19295h1.878v3.632625h-1.878v6.144675h1.878v3.632625h-8.226v-9.7773z"/><path d="m109.22025 27.6693037v-3.632625h1.2675v-4.19295h6.348v4.19295h1.878v3.632625h-1.878v6.144675h1.878v3.632625h-8.226v-9.7773z"/><path d="m127.79475 37.7206537c-2.1075.114225-4.185-.532425-5.85075-1.820925-.74475-.650925-1.33875-1.4547-1.74075-2.3559s-.60225-1.87845-.588-2.86425c0-4.389075 3.51225-6.9291 7.70025-6.9291 4.55475 0 7.55925 3.184425 7.55925 7.04115 0 .4482 0 .868425-.05625 1.307325h-8.82675c.16875 1.56885 1.014 2.315925 2.2815 2.315925.42225-.00345.83625-.113175 1.2045-.3189.3675-.205725.67725-.50085.89925-.8577h4.47c-.939 3.044325-3.756 4.482375-7.05225 4.482375zm-1.87875-7.685475h3.315v-.289425c0-1.148625-.28125-2.315925-1.65225-2.315925-.33525-.010275-.66525.08805-.93975.279975-.27375.192-.4785.46725-.582.784575-.1245.5037-.15675 1.025775-.09375 1.5408z"/><path d="m137.007 33.8127037v-6.1446h-1.12725v-3.632625h7.51275v2.063775c1.21125-1.27935 2.5545-2.37195 4.44225-2.37195.2625-.014025.52575-.014025.78825 0v4.6692c-1.0065-.05475-2.016.0174-3.0045.214725-.384.078975-.74775.2337-1.071.4551-.3225.221325-.597.504825-.80775.833625-.321.815775-.43725 1.6974-.3375 2.568075v1.344675h1.521v3.632625h-9.0435v-3.632625z"/><path d="m28.988175 33.8277037v-6.107325h-1.108125v-3.5766h7.428075v9.7119h1.173825v3.60465h-8.6019v-3.632625zm6.31995-15.8472v4.743825h-6.31995v-4.743825z"/><path d="m.083205 21.9025537v-3.92205h9.29682v3.92205h-1.3053l1.9908 7.84425 2.99565-11.7663h4.8456l2.9769 12.139875h.04695l2.169225-8.217825h-2.00955v-3.92205h6.751875v3.92205h-.770025l-4.39485 15.5391h-6.1509l-2.206875-8.79675h-.04695l-2.235 8.79675h-6.2729775l-4.432425-15.5391z"/></g></svg>