<svg height="34" viewBox="0 0 32 34" width="32" xmlns="http://www.w3.org/2000/svg"><path d="m21.8041992 7.70214844c-.805664 0-1.5549316.12353515-2.2478027.37060547-.6928711.24707031-1.3239746.49145507-1.8933106.73315429-.5693359.24169922-1.0634765.36254883-1.4824218.36254883-.4404297 0-.9291993-.11547851-1.4663086-.34643555-.5371094-.23095703-1.114502-.45922851-1.7321778-.68481445-.6176757-.22558594-1.2756347-.33837891-1.9738769-.33837891-1.32128908 0-2.5942383.35986329-3.81884768 1.07958985-1.22460937.71972656-2.2290039 1.78320313-3.01318359 3.19042973-.78417969 1.4072265-1.17626953 3.1420898-1.17626953 5.2045898 0 1.2890625.15039062 2.578125.45117188 3.8671875.30078124 1.2890625.70361328 2.5083008 1.20849609 3.6577148.50488281 1.1494141 1.06347656 2.1645508 1.67578125 3.0454102.79492187 1.1064453 1.57104492 2.0571289 2.32836914 2.8520508s1.63549804 1.1923828 2.63452144 1.1923828c.6552735 0 1.2246094-.1074219 1.7080079-.3222656.4833984-.2148438.9963378-.4323731 1.5388183-.6525879.5424805-.2202149 1.2219238-.3303223 2.0383301-.3303223.6230469 0 1.144043.0644531 1.5629883.1933594.4189453.1289062.8029785.2766113 1.1520996.4431152s.717041.314209 1.1037598.4431153c.3867187.1289062.8540039.1933593 1.4018554.1933593.7197266 0 1.3669434-.1906738 1.9416504-.5720215.574707-.3813476 1.1064453-.8728027 1.5952149-1.4743652.4887695-.6015625.9641113-1.2299805 1.4260253-1.8852539.5048829-.7412109.9157715-1.4528809 1.2326661-2.1350098.3168945-.6821289.5505371-1.2407226.7009277-1.6757812s.230957-.6740723.2416992-.717041c-.0322266-.0107422-.2658691-.1315918-.7009277-.3625489-.4350586-.230957-.9291992-.5988769-1.4824219-1.1037597s-1.0366211-1.1655274-1.4501953-1.9819336c-.4135742-.8164063-.6203613-1.8154297-.6203613-2.9970703 0-1.03125.1638183-1.920166.491455-2.6667481.3276368-.746582.71167-1.3642578 1.1520996-1.8530273.4404297-.4887695.8352051-.8620606 1.1843262-1.1198731s.5505371-.402832.6042481-.4350586c-.5371094-.7734375-1.1225586-1.37499996-1.7563477-1.80468746-.633789-.4296875-1.2568359-.74121093-1.8691406-.93457031-.6123047-.19335937-1.1574707-.31420898-1.6354981-.36254883-.4780273-.04833984-.8298339-.07250976-1.0554199-.07250976zm-1.1279297-2.61035156c.4941407-.59082032.8969727-1.27563477 1.2084961-2.05444336.3115235-.7788086.4672852-1.58178711.4672852-2.40893555 0-.23632813-.0161133-.44580078-.0483399-.62841797-.805664.03222656-1.6462402.27392578-2.5217285.72509766-.8754883.45117187-1.5979004 1.01513672-2.1672363 1.69189453-.4619141.515625-.8701172 1.16015625-1.2246094 1.93359375s-.5317383 1.56835937-.5317383 2.38476562c0 .12890625.0080567.24707032.02417.35449219.0161132.10742187.029541.18261719.0402832.22558594.1396484.03222656.2846679.04833984.4350586.04833984.7197265 0 1.4851074-.21484375 2.2961425-.64453125.8110352-.4296875 1.4851075-.97216797 2.0222168-1.6274414z" fill="#55606e"/></svg>