<svg height="30" viewBox="0 0 120 30" width="120" xmlns="http://www.w3.org/2000/svg"><g fill="#55606e" fill-rule="nonzero"><path d="m44.5145 21.601v-7.029l-2.2225 7.029h-1.596l-2.1845-7.01v7.01h-2.0895v-13.298h2.0895l2.9825 8.795 3.0205-8.795h2.0895v13.298zm11.9705 0c-3.021.285-7.314.8545-7.314-3.211v-1.576c0-1.3675.532-2.1465 1.311-2.5265 1.349-.665 3.2485-.057 3.9135.304 0-1.045-1.083-1.216-2.0325-1.216l.171-1.444c3.9515 0 3.9515 2.185 3.9515 4.0085v5.661zm-2.09-4.7875c-.703-.494-3.1155-1.3675-3.1155.2655v1.045c0 1.2345.817 2.032 3.1155 1.634zm10.4875 4.673c-1.349.3615-2.8305.4375-3.9895.076-1.5-.494-2.127-1.463-2.127-3.382v-2.4315c0-3.704 3.134-4.597 6.079-3.229l-.57 1.8045c-2.2605-.893-3.42.019-3.42 1.311v2.7535c0 1.824 2.793 1.33 3.458 1.045zm3.9905-3.59c.1135 1.1015.9305 1.8615 2.2225 1.8615 1.7095 0 2.2605-1.007 2.2605-1.6525 0-3.7235-6.402-2.413-6.402-6.706 0-1.596 1.3485-3.2865 4.293-3.2865 1.311 0 2.0135.209 2.774.57 0 .019-.437 1.292-.665 1.976-.7025-.228-1.273-.418-2.0895-.418-1.539 0-2.128.627-2.052 1.349.209 1.843 6.44 1.7855 6.44 6.3255 0 2.0705-1.292 3.8945-4.5405 3.8945-2.9445 0-4.4265-1.8995-4.4835-3.591zm11.7415 3.9515c-2.2605-.038-2.8875-1.2735-2.8875-2.755v-10.79h2.128v3.7805h1.8045l-.456 1.957h-1.3485v5.0525c0 .9305.627 1.083 1.3865 1.083zm9.7275-3.7425c0 1.9375-1.007 3.6845-3.5145 3.6845-2.489 0-3.5715-1.747-3.5715-3.6845v-2.5075c0-2.394 1.2725-3.7235 3.5715-3.7235 2.2035 0 3.5145 1.425 3.5145 3.7235zm-2.071-2.5075c0-1.539-.893-1.615-1.444-1.615-.646 0-1.4815.228-1.4815 1.615v2.697c0 1.1015.7025 1.4435 1.4815 1.4435s1.444-.417 1.444-1.4435zm4.4845 6.003v-9.5175h1.938l.1515.076c1.33-.456 2.2225-.209 3.2295 0l-.4935 2.0325c-1.273-.646-2.736-.038-2.736 1.292v6.1165h-2.0895zm6.9535-12.386c0-.589.532-1.102 1.1395-1.102.589 0 1.102.513 1.102 1.102 0 .608-.513 1.14-1.102 1.14-.6075-.0005-1.1395-.532-1.1395-1.14zm.038 12.386v-9.5175h2.09v9.5175zm6.6875-3.3625v.531c0 1.2355 1.1975 1.577 3.4955.3615l.7605 1.8045c-.8935.551-2.052.874-3.135.8925-1.881.0575-3.2295-.798-3.2295-2.7735v-3.894c0-2.09 1.425-3.2485 3.495-3.2485 2.109 0 3.344 1.197 3.344 3.1915v2.8875zm2.622-3.0965c0-.798-.589-1.178-1.254-1.178-1.064 0-1.368.741-1.368 1.216v1.1395l2.622-.1705zm6.004 3.837c0 .343.342.95 1.425.95.9115 0 1.3105-.551 1.3105-1.045 0-1.994-4.2745-.9305-4.597-4.217-.114-1.197.7405-2.8115 3.2485-2.8115 1.3485 0 2.128.551 2.128.551l-.6085 1.9375s-.4365-.437-1.5195-.437c-1.1775 0-1.045.57-.9885.798.247 1.102 4.541.7975 4.541 4.217 0 1.4815-1.045 2.964-3.5145 2.964-2.2605 0-3.458-1.2735-3.5145-2.698z"/><path d="m15 0c-8.284 0-15 6.716-15 15 0 8.2845 6.716 15 15 15 8.2845 0 15-6.7155 15-15 0-8.284-6.7155-15-15-15zm7 24.25c0 .1380712-.1119288.25-.25.25 0 0-6-4-6.75-4s-6.75 4-6.75 4c-.13807119 0-.25-.1119288-.25-.25v-18.5c0-.13807119.11192881-.25.25-.25h13.5c.1380712 0 .25.11192881.25.25z"/></g></svg>