<svg height="31" viewBox="0 0 82 31" width="82" xmlns="http://www.w3.org/2000/svg"><g fill="#55606e" fill-rule="nonzero"><path d="m6.68205128 11.1528205v10.4410257h1.58769231v3.396923h-7.26974359v-3.396923h1.75589744v-7.0994872h-1.72717949v-3.3415385zm-4.17846154-3.62051281c0-1.41948718 1.11384616-2.19897436 2.25641026-2.19897436 1.23076923 0 2.33846154.80820513 2.33846154 2.25641026 0 1.36410256-1.11384616 2.17230769-2.28307692 2.17230769-1.16923077 0-2.31179488-.83692307-2.31179488-2.22974359z"/><path d="m27.3692308 24.9907692v-3.4092307h1.9774359v-10.0676923l-6.2092308 7.2676923h-.8348718l-6.014359-7.4338462v10.2338462h1.8933334v3.4092307h-8.20512824v-3.4092307h2.22769234v-12.32205132h-2.23794875v-3.76h7.04615385l5.8461538 7.74153842 5.8194872-7.74153842h6.8492308v3.76h-2.1046154v12.32205132h2.0512821v3.4092307z"/><path d="m43.8 10.8184615c4.705641 0 7.3517949 3.0358975 7.3517949 7.2964103 0 3.9261538-2.7282052 7.2123077-7.323077 7.2123077-4.5948717 0-7.3292307-3.0646154-7.3292307-7.214359 0-4.2584615 2.8164102-7.294359 7.3005128-7.294359zm.0841026 3.4871795c-2.3384616 0-3.5076923 1.614359-3.5076923 3.8153846 0 1.9220513 1.1138461 3.5917949 3.4523076 3.5917949 2.3384616 0 3.4523077-1.6717949 3.5076924-3.5917949 0-2.2071794-1.3374359-3.8215384-3.4523077-3.8215384z"/><path d="m54.7989744 14.5210256h-1.7825641v-3.3682051h5.0953846l.3630769 1.308718c1.0584615-1.1979488 2.3938461-1.6717949 3.8707692-1.6717949 1.2307693 0 2.7015385.3897436 3.76 1.3374359l-1.811282 3.3128205c-.7386016-.5757228-1.6523948-.8805619-2.588718-.8635897-1.5323077 0-3.0358974.8635897-3.0358974 3.2820512v3.7907693h1.9220513v3.3415384h-7.9097436v-3.3415384h2.1169231z"/><path d="m79.8882051 23.2102564c-1.5035897 1.4748718-3.9815384 2.1723077-6.0143589 2.1723077-5.374359 0-7.628718-3.2820513-7.628718-7.4071795 0-4.3076923 2.8964103-7.1794872 7.4338462-7.1794872 4.5948718 0 7.491282 2.4225641 6.6830769 8.6605129h-10.1641026c.2051282 1.3928205 1.4482051 2.4225641 3.76 2.4225641 1.1138462 0 2.7015385-.4102565 3.6471795-1.1979488zm-3.091282-6.7117949c.0553846-1.6984615-1.3641026-2.3938461-3.0912821-2.3938461s-3.2020513.7794872-3.5364102 2.3938461z"/></g></svg>